<svg width="100" height="100" viewBox="0 0 100 100" fill="none" xmlns="http://www.w3.org/2000/svg">
<path d="M12.4922 27.9375L9.16407 28.7031C9.16407 28.7031 4.54688 35.8281 3.53907 43.4063C2.90626 48.1641 2.88282 54.375 3.32032 57.4688C3.76563 60.5625 5.35938 67.1484 7.86719 71.7891C10.2813 76.2578 12.6328 78.0156 15.2031 79.5703C16.3047 80.2344 17.2891 82.5078 19.0078 83.6094C20.6172 84.6406 22.7422 84.8438 22.7422 84.8438C22.7422 84.8438 28.6172 94.0703 41.3281 95.6719C56.2422 97.5469 63.5391 90.8125 63.5391 90.8125C63.5391 90.8125 69.5078 90.7969 75.1406 88.3828C81.4609 85.6719 84.8359 80.0313 84.8359 80.0313C84.8359 80.0313 92.75 73.2188 95.2578 65.0625C97.2734 58.5156 97.3281 46.0703 95.7813 40.211C94.2344 34.3516 91.2422 29.3906 88.8672 26.211C86.9766 23.6797 65.8672 12.461 63.3203 11.461C60.7813 10.4688 37.1328 8.92189 36.25 9.58595C35.3672 10.2578 12.4922 27.9375 12.4922 27.9375Z" fill="#AC5811"/>
<path d="M20.7266 15.4297C15.2188 19.9141 12.3672 22.2578 9.50781 27.8672C6.64844 33.4766 7.57031 40.9219 8.08594 43.6719C8.59375 46.4219 9.51563 51.7266 10.0234 54.375C10.5313 57.0312 11.8828 63.3281 15.625 67.2266C20.8672 72.6875 25.6172 74.5703 25.6172 74.5703C25.6172 74.5703 29.4688 80.5391 38.7734 83.9531C51.0078 88.4375 56.5156 81.914 61.2031 80.1797C65.8906 78.4453 71.5 78.3437 76.2969 74.9766C81.0859 71.6094 86.3906 67.5312 89.8594 58.9687C93.3281 50.4062 92.6094 46.6328 92.7109 44.4922C92.8125 42.3516 92.5078 32.0547 88.5312 25.7344C84.5547 19.4141 79.7734 15.6172 77.9297 14.4141C73.8516 11.7656 59.2891 5.42968 55.625 4.71874C51.9531 4.0078 38.8594 5.11718 33.6641 7.2578C28.4688 9.39843 20.7266 15.4297 20.7266 15.4297Z" fill="url(#paint0_radial_108_1612)"/>
<path d="M43.9688 55.8281C43.1016 55.5547 42.1875 54.2656 41.9688 51.5078C41.6641 47.5781 44.5625 46.4922 44.5625 46.4922C44.5625 46.4922 48.0156 45.5781 50.4453 44.711C52.7031 43.9063 54.3281 42.875 54.3281 42.875C54.3281 42.875 54.5469 38.6641 55.9453 37.4219C57.3516 36.1797 59.8281 36.2891 62.5859 36.6094C65.3359 36.9297 69.7656 38.7656 69.1172 40.4375C68.4688 42.1094 67.7109 43.7813 65.0703 45.2969C62.4297 46.8047 60.5391 48.211 59.1875 49.3985C57.8359 50.5938 55.3594 52.0938 51.2578 53.6094C47.1563 55.125 45.2188 56.2188 43.9688 55.8281ZM20.7422 20.6797C18.1484 20.1485 14.4844 25.7656 13.8047 27.625C13.1172 29.4844 12.4141 34.0156 12.3359 36.086C12.2344 38.6563 12.1875 41.0703 13.2656 43.0313C14.0938 44.5469 16.1016 45.3985 17.9063 43.836C19.7109 42.2735 22.8438 37.9922 23.6719 37.3906C24.5 36.7891 26.9219 35.9922 25.9688 32.0547C25.5781 30.4453 21.6172 27.1172 21.4219 26.6641C21.2344 26.2188 22.2109 20.9844 20.7422 20.6797ZM39.0781 13.625C39.1797 15.1328 40.4141 17.5469 41.75 18.8516C43.75 20.7969 52.9219 27.375 55.2969 27C57.6719 26.625 60.2578 22.3594 61.0156 21.1719C61.7734 19.9844 63.2812 18.3125 63.875 17.5547C64.4688 16.7969 66.0312 15.0703 64.7422 13.3438C63.4453 11.6172 60.2109 10.4844 58.0547 10.3203C55.8984 10.1563 52.5469 8.75783 49.6875 8.8672C46.8281 8.97658 38.8125 9.73439 39.0781 13.625ZM76.8281 33.7422C77.0078 35.3828 79.3125 35.7422 81.1484 36.9297C82.9844 38.1172 84.2266 39.3594 85.3047 39.0313C86.3828 38.711 87.8516 36.9844 87.5156 33.961C87.0859 30.0781 84.6562 25.1094 81.2578 25.2735C79.2031 25.375 79.4844 28.9453 79.4844 28.9453C79.4844 28.9453 76.7188 32.7735 76.8281 33.7422Z" fill="#FFC86E"/>
<path d="M32.3984 23.6172C32.3984 23.6172 25.0312 23.5703 25.1641 24.3047C25.3047 25.0391 25.9453 27.4609 27.8672 27.5547C29.7891 27.6484 32.2656 27.8281 33.4531 27.4609C34.6406 27.0938 37.9375 24.4375 37.9375 23.25C37.9375 22.0625 36.6094 20.3203 36.6094 20.3203L32.3984 23.6172ZM42.9219 37.125C42.9219 37.125 42.8359 37.1797 42.7109 37.2812C42.3437 37.5859 41.6406 38.2969 41.9141 39.0938C42.2812 40.1484 44.4297 42.1172 46.5391 42.1172C48.6484 42.1172 49.7891 40.1484 50.1562 38.8672C50.5234 37.5859 50.3359 36.8047 50.3359 36.8047L42.9219 37.125ZM26.4922 43.125C26.4922 43.125 25.2109 43.5859 25.2578 44.4062C25.3047 45.2266 25.625 46.7422 27.2734 48.3438C28.9375 49.9609 31.3516 50.4062 33.5469 49.8125C35.7422 49.2188 37.3437 47.5703 37.1641 45.375C36.9844 43.1797 34.875 41.4844 34.875 41.4844L26.4922 43.125ZM17.0156 55.2578C17.0156 55.2578 15.6406 55.5781 15.7812 56.4922C15.9219 57.4062 17.4766 60.2891 19.9453 59.9688C22.4141 59.6484 26.3125 56.8125 26.3125 55.7109C26.3125 54.6094 24.3437 53.1484 24.3437 53.1484L17.0156 55.2578ZM33.8594 66.7031C33.8594 66.7031 33.3516 69.6562 37.3359 70.7344C43.9766 72.5234 44.6641 68.4922 44.6641 68.4922L33.8594 66.7031ZM59.9453 68.0703C59.9453 68.0703 58.1641 69.8516 60.1875 71.25C62.2109 72.6484 64.5156 73.125 66.6875 72.8828C68.8594 72.6406 70.3437 70.9062 70.3437 70.9062L59.9453 68.0703ZM76.5703 48.2891C76.5703 48.2891 73.2109 49.9844 75.8125 52.9141C77.7891 55.1484 82.3125 54.6953 84.1641 53.4375C85.375 52.6172 85.7344 51.1641 85.2812 50.4297C84.8203 49.6953 76.5703 48.2891 76.5703 48.2891ZM63.5703 28.8828C63.5703 28.8828 63.3906 32.7188 68.5625 32.5938C75.7969 32.4141 74.8828 27.9219 74.8828 27.9219L63.5703 28.8828Z" fill="#CF701E"/>
<path d="M66.9141 24.0781C66.9141 24.0781 63.5234 26.1875 63.1562 27.0547C62.789 27.9219 62.0078 30.6719 65.9453 30.4922C69.8828 30.3125 73.8203 30.1719 75.1484 28.5703C76.4766 26.9688 76.1562 25.5 75.6094 24.3125C75.0625 23.125 71.9844 18.6328 69.5391 18.6875C67.9375 18.7188 66.9141 24.0781 66.9141 24.0781Z" fill="#593329"/>
<path d="M69.5234 18.6719C69.5234 18.6719 67.375 18.3984 65.4922 21.7422C63.6172 25.0859 63.1328 27.0781 63.1328 27.0781C63.1328 27.0781 66.9531 27.0938 69.2422 26.8203C71.5312 26.5469 73.0859 25.125 73.0859 25.125C73.0859 25.125 71.2188 19.0859 69.5234 18.6719Z" fill="#925849"/>
<path d="M43.5234 34.2891C43.5234 34.2891 41.6484 34.1641 41.5078 34.8906C41.3672 35.625 41.7813 37.4922 42.4219 38.3125C43.0625 39.1328 44.9844 40.9688 46.9063 40.6016C48.8281 40.2344 49.9688 38.3516 50.2891 37.7031C50.5781 37.0938 50.8906 36.4375 50.3438 35.6172C49.7891 34.7891 43.5234 34.2891 43.5234 34.2891Z" fill="#593329"/>
<path d="M46.3125 31.3594C44.7187 31.1875 40.875 34.2422 41.5625 35.2891C42.3281 36.4375 42.4609 35.7109 44.5703 36.7656C46.3125 37.6328 47.0703 38.4375 48.1641 38.2969C49.2578 38.1563 50.5625 36.3516 50.3359 35.6172C50.1094 34.8828 48.4687 31.5859 46.3125 31.3594Z" fill="#925849"/>
<path d="M28.2734 18.9922L24.5234 21.5859C24.5234 21.5859 24.3828 23.3437 25.1641 24.3047C25.9453 25.2656 26.1719 25.8594 29.8359 25.8594C33.5 25.8594 36.9297 25.3594 37.5703 22.75C38.2109 20.1406 37.0859 18.4687 36.3984 17.5078C35.7109 16.5469 28.2734 18.9922 28.2734 18.9922Z" fill="#593329"/>
<path d="M28.3203 14.9219C27.4766 15.2812 25.4844 17.9922 25.0234 19.1797C24.5625 20.3672 24.4609 21.6328 24.5234 21.6484C25.2813 21.8359 29.7422 22.25 31.7109 21.9297C33.6797 21.6094 35.2813 20.7422 35.9219 19.5937C36.4297 18.6797 36.3906 17.4687 36.3906 17.4687C36.3906 17.4687 35.0547 15.0625 33.2188 14.3281C31.3906 13.5937 28.6406 14.7812 28.3203 14.9219Z" fill="#925949"/>
<path d="M25.1797 43.2969C25.1797 43.2969 24.8672 43.7734 25.4609 44.6875C26.0547 45.6016 27.2187 46.6953 28.9609 47.2031C30.7031 47.7031 31.9375 48.3906 33.0781 48.2578C34.2266 48.1172 36.4688 47.2031 36.5547 44.0469C36.6484 40.8906 36.0078 39.4219 34.6328 38.0469C33.2578 36.6719 32.2656 36.9063 32.2656 36.9063L25.1797 43.2969Z" fill="#593329"/>
<path d="M25.5781 40.375C25.0937 41.1875 24.7344 43.8281 25.3281 44.4219C25.9219 45.0156 29.4922 45.0547 30.4297 44.9531C31.375 44.8516 34.4609 43.3984 34.5078 42.2969C34.5547 41.1953 33.9609 39.7344 33.9609 39.1875C33.9609 38.6406 34.6484 37.3594 32.7734 36.8984C30.8984 36.4375 26.5781 38.6797 25.5781 40.375Z" fill="#925849"/>
<path d="M19.3906 52.2344C19.3906 52.2344 16.4453 52.961 16.2578 53.9688C16.0781 54.9766 16.5 55.9922 17.5078 56.9531C18.5156 57.9141 19.25 58.9219 20.0234 58.8281C20.8047 58.7344 22.8594 56.9063 23.5 56.3125C24.1406 55.7188 25.0547 54.6641 24.9687 53.7969C24.8828 52.9297 24.5078 52.0547 23.6875 51.3672C22.875 50.6797 19.3906 52.2344 19.3906 52.2344Z" fill="#593329"/>
<path d="M20.125 49.625C18.75 49.6562 17.6953 51.3203 17.2422 51.914C16.7813 52.5078 16.0078 53.9297 16.3281 54.1562C16.6485 54.3828 17.9766 54.5234 18.6172 54.9375C19.2578 55.3515 20.2188 55.9922 20.9531 55.3984C21.6875 54.8047 22.3281 53.1562 22.6953 52.6094C23.0625 52.0625 23.7031 51.375 23.7031 51.375C23.7031 51.375 22.3203 49.5781 20.125 49.625Z" fill="#925849"/>
<path d="M36.9297 60.6562C36.6563 60.9766 32.7656 64.1328 32.7656 64.1328C32.7656 64.1328 32.9063 66.8828 33.7734 67.5234C34.6406 68.1641 37.3438 69.0781 39.0859 69.4453C40.8281 69.8125 43.9375 70.2266 44.7188 69.9063C45.5 69.5859 46.3203 67.8906 46.3672 65.6953C46.4141 63.5 45.6328 61.8594 44.7656 60.8516C43.8984 59.8437 43.2031 59.4688 43.2031 59.4688L36.9297 60.6562Z" fill="#593329"/>
<path d="M42.1016 64.7734C42.6094 64.2031 43.2031 59.4609 43.2031 59.4609C43.2031 59.4609 39.6797 56.7578 38.211 56.5781C36.7422 56.3984 35.0078 56.5313 34.5 57.0781C34 57.625 32.0313 59.5938 32.211 60.875C32.3906 62.1563 32.7578 64.125 32.7578 64.125C32.7578 64.125 41.0469 65.9688 42.1016 64.7734Z" fill="#925849"/>
<path d="M59.1797 67.0313C59.1797 67.0313 58.7344 70 62 70.5625C65.2656 71.1172 67.9766 71.8594 69.3906 71.5625C70.8047 71.2656 72.2109 69.375 72.3594 68C72.5078 66.625 72.5859 64.6406 72.3594 64.1016C71.7656 62.6719 69.0156 58.7578 67.6797 58.3438C66.9297 58.1172 66.2188 58.2422 66.2188 58.2422L59.1797 67.0313Z" fill="#593329"/>
<path d="M61.2969 61.8281C59.836 63.4453 59.086 65.7812 59.1641 67.0156C59.2422 68.1797 64.7813 67.6719 65.4375 67.2734C66.0938 66.875 67.5234 65.0937 67.5703 64.5C67.6172 63.9062 67.1641 62.0469 67.086 60.8984C67.0078 59.75 66.9766 58.1875 66.3438 58.2265C65.7109 58.2656 63.375 59.5312 61.2969 61.8281Z" fill="#925849"/>
<path d="M80.0312 41.6719C80.0312 41.6719 81.3203 41.8594 82.9062 42.8125C84.7578 43.9219 86.6953 46.75 86.5469 49.0547C86.3984 51.3594 84.3906 52.3984 81.9453 52.4375C79.5 52.4766 77.1094 52.3437 76.664 51.0781C76.2187 49.8125 80.0312 41.6719 80.0312 41.6719Z" fill="#593329"/>
<path d="M78.0781 42.4453C77.6953 42.9766 76.7031 44.6016 76.3672 46.6797C76.0313 48.7578 76.2578 51.1328 77 51.5469C77.7422 51.9531 81.8281 48.4297 82.0469 48.0547C82.2734 47.6797 80.7422 42 80.2578 41.7422C79.7735 41.4844 78.5625 41.7812 78.0781 42.4453Z" fill="#925849"/>
<defs>
<radialGradient id="paint0_radial_108_1612" cx="0" cy="0" r="1" gradientUnits="userSpaceOnUse" gradientTransform="translate(50.1281 44.9969) scale(41.5641 41.5641)">
<stop offset="0.507" stop-color="#F29F58"/>
<stop offset="0.715" stop-color="#F09D56"/>
<stop offset="0.826" stop-color="#EB9550"/>
<stop offset="0.914" stop-color="#E18745"/>
<stop offset="0.99" stop-color="#D47436"/>
<stop offset="1" stop-color="#D27133"/>
</radialGradient>
</defs>
</svg>
