<svg width="44" height="44" viewBox="0 0 44 44" fill="none" xmlns="http://www.w3.org/2000/svg">
<path d="M8.99936 6.97811C1.07592 14.6472 -0.0550177 27.4897 7.58654 35.774C15.2281 44.0584 28.875 42.8622 35.3684 36.7744C40.7309 31.7453 41.6625 28.1394 41.879 22.9281C42.075 18.1637 41.0403 13.2034 36.9875 8.85499C32.4912 4.03561 26.8365 2.13468 21.7319 2.17249C16.5447 2.2103 12.1687 3.91186 8.99936 6.97811Z" fill="#6C6E70"/>
<path d="M14.3722 4.63719C14.3722 4.63719 13.0866 2.27907 12.5159 1.78063C11.9453 1.28219 8.17438 0.22688 4.87438 3.35157C2.23095 5.85063 2.55063 9.63875 3.05251 10.1406C3.55438 10.6425 5.73376 12.2788 5.73376 12.2788L7.23251 9.85188L5.5172 8.35313C5.5172 8.35313 5.73032 6.21157 7.23251 4.99813C8.7347 3.78469 10.7319 3.99782 10.7319 3.99782L11.9453 5.56876L14.3722 4.63719ZM30.1125 39.5244C30.1125 39.5244 31.5425 41.5388 32.0066 41.9581C32.3606 42.2778 36.08 43.9588 39.4247 40.8375C43.4122 37.1147 41.8034 33.7494 41.3016 33.2475C40.7997 32.7456 39.215 31.3397 39.215 31.3397L37.6475 33.4984C37.6475 33.4984 39.0191 34.7394 39.215 35.2C39.4109 35.6606 38.8919 37.7472 37.6166 38.7509C36.3413 39.7547 34.65 40.1569 34.1103 39.7719C33.5706 39.3869 32.5497 38.0531 32.5497 38.0531C32.5497 38.0531 29.8409 39.3319 30.1125 39.5244Z" fill="#6C6E70"/>
<path d="M22.5019 3.61626C18.2566 3.21751 11.8353 5.0497 7.77219 10.3538C5.32126 13.5541 3.50626 17.9438 3.88782 23.4747C4.81938 36.9188 15.9672 40.5659 22.7322 40.3838C30.8241 40.1672 41.0266 33.4056 40.4869 21.6013C39.9438 9.70407 30.7484 4.39313 22.5019 3.61626Z" fill="#302F2F"/>
<path d="M8.30157 12.0863C2.91844 19.8688 4.45844 29.4869 11.0928 35.1038C17.7272 40.7206 28.0294 40.7206 34.8975 33.4434C40.2772 27.7441 41.415 17.9609 33.7906 9.93094C28.9128 4.79188 15.8675 1.14469 8.30157 12.0863Z" fill="#D28333"/>
<path d="M14.104 9.43251C10.9656 11.4984 5.6581 17.3147 7.32873 24.5094C8.92717 31.4016 13.4578 37.0734 22.6703 37.2247C31.8828 37.3759 36.7572 29.1156 37.0631 23.4059C37.369 17.6963 34.2822 11.0309 28.0775 8.51813C21.8728 6.00532 16.885 7.6072 14.104 9.43251Z" fill="#F2AB47"/>
<path d="M19.3978 15.6303L18.3494 16.0635C18.3494 16.0635 17.5725 18.1981 18.2291 18.4766C18.8891 18.7516 19.6728 18.2635 20.1197 17.9472C20.5666 17.631 22.6257 15.8022 23.1138 15.3141C23.6019 14.826 24.5163 14.3378 24.4957 13.9769C24.475 13.616 24.3478 13.3822 23.815 13.1485C23.2857 12.9113 19.3978 15.6303 19.3978 15.6303Z" fill="#A05C3C"/>
<path d="M20.6937 12.0175C20.0234 12.2272 19.3119 13.7809 18.9956 14.5028C18.6759 15.2247 17.8922 16.6272 18.6141 16.9022C19.3359 17.1772 20.3362 16.3934 21.1406 15.6062C21.9484 14.819 22.8387 13.7569 23.2444 13.5025C23.6466 13.2481 23.8184 13.1415 23.8184 13.1415C23.8184 13.1415 22.5878 12.3544 21.9278 12.1C21.2678 11.849 21.0341 11.9109 20.6937 12.0175Z" fill="#C67C5D"/>
<path d="M12.5022 12.1859C12.5022 12.1859 12.516 12.0381 13.0247 12.1447C13.5335 12.2513 13.451 12.7188 13.5128 13.2275C13.5781 13.7363 13.726 15.6922 13.4716 16.1803C13.2172 16.6684 13.0144 16.7647 12.815 16.8541C12.5606 16.9675 11.9419 16.9469 11.8353 16.8816C11.7288 16.8163 11.4538 16.3934 11.4538 16.2009C11.4538 16.0084 11.1788 14.0972 11.1788 14.0972L12.5022 12.1859Z" fill="#A05C3C"/>
<path d="M11.1581 13.0384C10.921 13.3341 10.945 14.1213 11.1375 14.9703C11.33 15.8194 11.4572 16.2009 11.4572 16.2009C11.4572 16.2009 12.3716 15.9878 12.6466 15.3931C12.9216 14.7984 12.6672 12.1 12.6672 12.1C12.6672 12.1 12.0725 12.2478 11.8422 12.5469C11.6944 12.7359 11.4125 12.7188 11.1581 13.0384Z" fill="#C67C5D"/>
<path d="M17.0843 24.8462C17.0843 24.8462 16.6753 25.7675 17.16 26.1009C17.6447 26.4378 18.5006 26.8091 19.7931 27.0084C21.0856 27.2078 22.6015 27.2387 23.1 27.0325C23.6706 26.7953 23.9078 26.2866 23.894 25.7022C23.8803 25.1178 23.3956 24.6091 23.0725 24.3856C22.7493 24.1622 21.2575 23.3166 21.2575 23.3166L17.0843 24.8462Z" fill="#A05C3C"/>
<path d="M18.6484 22.6978C17.8269 22.8766 17.4109 23.7841 17.3078 24.1141C17.2081 24.4234 17.0706 24.86 17.0706 24.86C17.0706 24.86 17.8544 25.6816 18.9097 25.9428C19.965 26.2041 20.4119 26.2522 20.6112 26.2419C20.8106 26.2281 22.1512 25.8191 22.2131 25.3963C22.275 24.9734 21.6425 23.6053 21.3194 23.3578C20.9962 23.1103 20.4428 22.8903 19.9272 22.7975C19.4459 22.7081 19.1606 22.5844 18.6484 22.6978Z" fill="#C67C5D"/>
<path d="M29.5762 16.4931C29.5762 16.4931 29.1672 16.4553 28.9506 16.7681C28.8268 16.9434 28.875 17.5347 29.1981 17.7547C29.5212 17.9712 29.975 18.0297 30.3256 17.9644C30.7656 17.8819 31.6765 17.3284 32.1853 17.0156C32.7731 16.6547 33.3437 16.3316 33.4365 15.9637C33.5328 15.5925 33.5018 15.3553 33.4468 15.2522C33.2887 14.9669 29.5762 16.4931 29.5762 16.4931Z" fill="#A05C3C"/>
<path d="M31.2434 14.9256C30.7312 15.3003 30.4184 15.5031 29.9544 15.8847C29.6759 16.1116 29.0262 16.6719 29.0262 16.6719C29.0262 16.6719 29.4044 17.2597 30.2672 17.2425C31.13 17.2219 32.1269 16.4072 32.4466 16.115C32.7662 15.8228 33.4606 15.2625 33.4606 15.2625C33.4606 15.2625 33.3231 14.7606 32.5222 14.5991C31.9653 14.4822 31.5666 14.6919 31.2434 14.9256Z" fill="#C67C5D"/>
<path d="M30.3875 24.1381C30.3875 24.1381 31.5494 24.3753 32.2197 24.9803C32.5635 25.2897 33.3231 26.7403 33.22 27.28C33.1169 27.8197 32.9038 28.2941 32.1544 28.4109C31.1438 28.5656 30.5353 28.0087 30.5353 28.0087L30.3875 24.1381Z" fill="#A05C3C"/>
<path d="M29.9991 24.2378C29.4662 24.4991 29.4078 25.3412 29.755 26.7025C30.1022 28.0637 30.8481 28.1669 31.0784 28.2322C31.3087 28.2975 32.3641 27.8712 32.3744 27.3075C32.3881 26.7437 31.3603 25.0216 31.0372 24.6503C30.7175 24.2756 30.5491 23.9662 29.9991 24.2378Z" fill="#C67C5D"/>
<path d="M12.8219 30.0438L12.5228 31.4359C12.5228 31.4359 12.8322 32.4947 13.53 32.4947C14.2278 32.4947 14.7985 31.8484 14.9222 31.3259C15.046 30.8034 14.0181 28.0191 13.5953 27.5584C13.3238 27.2559 12.8219 30.0438 12.8219 30.0438Z" fill="#A05C3C"/>
<path d="M13.059 27.2319C12.8218 27.2456 12.1893 27.5928 11.739 28.2769C11.2922 28.9609 11.4159 29.7069 11.6153 30.0437C11.8147 30.3806 12.1618 30.69 12.1618 30.69L12.5228 31.4359C12.5228 31.4359 13.42 31.7728 13.8153 31.46C14.2106 31.1472 14.2381 29.26 13.8634 28.1772C13.4956 27.0944 13.2825 27.2216 13.059 27.2319Z" fill="#C67C5D"/>
<path d="M13.4819 33.4537C13.2 33.7597 13.3684 34.1069 13.8531 34.8906C14.4237 35.8187 14.9634 35.9425 15.4275 35.8187C15.8915 35.695 16.0462 34.6294 15.259 33.55C14.685 32.7594 13.6675 33.2509 13.4819 33.4537ZM33.4984 28.1565C32.9415 28.404 32.2025 29.6244 32.3572 30.1194C32.5119 30.6144 33.2544 30.7828 33.3609 30.7828C33.4675 30.7828 34.8425 30.2569 35.1072 29.5006C35.3684 28.7444 35.0315 28.3284 34.674 28.1428C34.2856 27.94 33.6978 28.0637 33.4984 28.1565ZM32.34 21.8212C31.8312 21.8797 31.5047 22.5465 31.7075 23.32C31.9103 24.0934 32.4328 24.695 32.9415 24.6778C33.4503 24.664 33.8078 24.4303 33.574 23.5056C33.3437 22.5809 33.1581 21.7319 32.34 21.8212ZM22.3162 6.80967C22.055 6.95405 21.5119 7.91999 21.7284 8.74155C21.945 9.56311 22.2853 9.57686 22.7494 9.51499C23.2134 9.45311 23.5365 8.69686 23.5228 8.06436C23.509 7.43186 22.9797 6.43842 22.3162 6.80967ZM17.3834 6.85092C17.1909 7.29436 17.2597 7.82374 17.9094 8.30155C18.559 8.77936 19.1847 8.68655 19.3462 8.64186C19.6247 8.56624 20.5356 7.94749 20.1334 7.22217C19.7312 6.49686 19.0678 6.75811 18.7275 6.69623C18.3872 6.63436 17.6756 6.17374 17.3834 6.85092ZM16.909 9.7453C16.4622 9.86905 16.3694 10.5187 16.4622 10.7353C16.555 10.9519 16.8953 11.4297 17.4831 11.7562C18.0709 12.0794 18.92 12.1584 19.1194 11.6015C19.3187 11.0447 19.3153 10.6287 18.9509 10.2437C18.4387 9.69717 17.6344 9.54592 16.909 9.7453ZM14.4237 12.7875C14.3653 13.0865 14.709 14.1384 15.2281 14.5475C15.8297 15.0253 16.4622 14.8087 16.524 13.915C16.5859 13.0212 16.06 12.155 15.5822 12.045C15.1009 11.9384 14.4994 12.3853 14.4237 12.7875Z" fill="#97A63B"/>
<path d="M26.5547 34.7738C26.2419 35.4853 26.5684 36.3138 27.61 36.4788C28.6515 36.6438 29.2462 35.2585 28.5828 34.5228C28.0294 33.9144 26.8606 34.0794 26.5547 34.7738ZM34.9628 15.3072C34.2684 15.5925 34.2478 16.4588 34.4369 16.861C34.6465 17.3044 35.1587 17.6241 35.8119 17.3869C36.3103 17.2047 36.63 16.4588 36.324 15.8606C36.0181 15.2625 35.4337 15.1147 34.9628 15.3072ZM23.3647 11.0688C22.9212 11.6463 23.045 12.3303 23.6294 12.6225C24.2137 12.9147 24.9184 12.5813 25.1144 12.0828C25.3103 11.5844 25.2381 11.11 24.7534 10.8213C24.224 10.5016 23.6431 10.7078 23.3647 11.0688ZM13.3409 10.2919C12.8047 10.7697 12.8012 11.5947 13.1759 11.9694C13.6194 12.4128 14.4925 12.3441 14.9256 11.9419C15.3587 11.5397 15.3828 10.9691 14.9394 10.4294C14.5131 9.9172 13.8531 9.8347 13.3409 10.2919ZM18.2944 19.6178C18.009 20.0647 17.9884 20.7969 18.6965 21.1853C19.2087 21.4672 19.9031 21.3228 20.209 20.8106C20.515 20.2985 20.374 19.6178 19.8894 19.3256C19.4047 19.0335 18.6828 19.006 18.2944 19.6178ZM13.7844 23.1963C13.3478 23.6328 13.2859 24.7225 14.1315 25.0835C14.9772 25.4444 15.5753 25.2347 15.8812 24.585C16.2181 23.8666 15.8262 23.21 15.2969 22.99C14.6265 22.7047 14.0903 22.8903 13.7844 23.1963Z" fill="#684D42"/>
<path d="M24.8016 31.2572C24.64 31.5528 24.7878 32.5188 24.7741 32.701C24.7603 32.8797 25.0662 33.1581 25.2175 33.1444C25.3687 33.1306 26.6612 33.2819 26.895 32.756C27.1322 32.23 27.3556 31.1816 26.5891 30.7313C25.9806 30.3703 24.9528 30.9788 24.8016 31.2572ZM26.8262 22.031C26.7437 22.5431 27.6856 23.736 28.5175 23.3785C29.3494 23.021 29.2531 21.34 28.7959 21.0616C28.3387 20.7831 27.6444 21.1303 27.3797 21.2575C27.1184 21.3778 26.8847 21.6666 26.8262 22.031ZM30.4734 18.5625C29.975 19.1056 30.2362 20.02 30.5697 20.3122C30.9031 20.6044 31.845 20.5631 32.1647 20.491C32.4844 20.4222 32.8453 19.9375 32.7903 19.5319C32.7353 19.1263 32.6803 18.2428 32.0959 18.0194C31.6112 17.8372 30.9341 18.0641 30.4734 18.5625ZM24.4819 15.51C24.3306 15.8091 24.1759 17.1463 24.7603 17.4522C25.3447 17.7581 26.7025 17.0775 26.7712 16.7578C26.84 16.4381 26.7162 15.8572 26.5925 15.565C26.4687 15.2728 26.2866 14.7606 25.9394 14.6919C25.5922 14.6231 24.7019 15.0666 24.4819 15.51ZM9.97905 12.7085C9.64218 12.595 8.5628 13.1519 8.4528 13.3891C8.3428 13.6263 8.32905 15.1113 8.5903 15.3175C8.85499 15.5272 9.59062 15.4206 9.83812 15.3038C10.1028 15.18 10.6012 14.9153 10.615 14.4581C10.6322 13.9975 10.5634 12.901 9.97905 12.7085ZM11.2441 24.1244C10.6494 24.1863 10.175 25.0972 10.175 25.3447C10.175 25.5922 10.4534 26.2316 10.7284 26.455C11.0069 26.6785 11.2681 26.8022 11.6291 26.706C11.99 26.6097 12.6844 25.9703 12.6156 25.4719C12.5503 24.9735 11.7872 24.0694 11.2441 24.1244Z" fill="#EA4333"/>
<path d="M21.4122 29.1569C21.4706 29.59 21.9966 29.8925 23.1172 29.4181C23.9525 29.064 24.3753 28.7719 24.2378 28.435C24.1003 28.0981 23.5916 27.9125 22.5947 28.1222C21.6597 28.3215 21.3641 28.7959 21.4122 29.1569ZM24.7259 26.1181C24.7706 26.6303 24.8497 27.2903 25.3619 27.2525C25.8741 27.2147 25.9119 26.455 25.8981 26.0459C25.8741 25.3481 25.6128 24.8497 25.1763 24.9012C24.7397 24.9459 24.6778 25.5441 24.7259 26.1181ZM21.8109 33.0172C21.9416 33.3815 22.385 33.5294 22.9934 33.33C23.6053 33.1306 23.9525 32.9553 23.8391 32.5703C23.7256 32.1853 22.7425 32.1234 22.4675 32.2094C22.1994 32.2953 21.6872 32.6665 21.8109 33.0172ZM28.6619 31.0475C28.1909 31.099 28.0019 31.6215 28.1153 32.4534C28.2288 33.2887 28.3525 33.9109 28.8131 33.9109C29.2738 33.9109 29.5591 32.9278 29.4353 32.2437C29.3081 31.5459 29.1088 30.9994 28.6619 31.0475ZM10.1956 29.2531C9.78657 29.4044 9.85532 30.0162 10.3022 30.6969C10.7491 31.3741 11.1719 31.5872 11.4572 31.429C11.7425 31.2709 11.5844 30.5078 11.2888 30.0059C10.9897 29.5075 10.7353 29.0503 10.1956 29.2531ZM10.2884 19.525C9.81063 19.5353 9.5872 20.2881 9.62157 20.9344C9.65251 21.5806 9.80032 22.1959 10.3125 22.1856C10.8213 22.1753 10.9072 21.4947 10.8969 20.7625C10.8831 20.0337 10.7663 19.5147 10.2884 19.525ZM12.3269 19.8653C11.8697 19.8756 11.6497 20.6181 11.66 21.3709C11.6703 22.1237 11.8388 22.3678 12.2341 22.3987C12.6294 22.4297 12.8184 21.7628 12.87 21.1681C12.9216 20.5734 12.8563 19.8515 12.3269 19.8653ZM9.67657 16.28C9.46688 16.4519 9.2847 17.2872 9.59063 17.8165C9.89657 18.3459 10.4706 19.0265 10.9588 18.7722C11.4469 18.5178 10.8728 17.3937 10.6528 16.9675C10.4294 16.5447 10.12 15.919 9.67657 16.28ZM15.9638 15.2384C15.5203 15.3072 15.3931 15.73 15.5409 16.4587C15.6784 17.1497 15.9122 17.5072 16.3041 17.4969C16.6959 17.4865 16.8025 16.6169 16.7613 16.1494C16.7234 15.7334 16.5791 15.1422 15.9638 15.2384ZM18.0022 12.8115C17.4763 12.6397 17.1119 12.9387 16.9641 13.8944C16.8128 14.8603 17.0053 15.2419 17.2941 15.3484C17.5794 15.455 18.0469 15.094 18.3563 14.1178C18.5694 13.4269 18.5522 12.9903 18.0022 12.8115ZM19.8791 10.9003C20.1988 11.1856 20.6525 10.7731 21.0134 10.3606C21.3744 9.94811 21.5325 9.62842 21.2369 9.39467C20.9413 9.16092 20.4634 9.34311 20.1128 9.77624C19.7622 10.2094 19.5491 10.6047 19.8791 10.9003ZM31.57 12.1412C31.1644 12.1687 30.9238 12.5125 30.9444 13.255C30.965 13.9975 31.1369 14.2106 31.4841 14.2209C31.8347 14.2312 32.0581 13.8187 32.0891 13.2034C32.12 12.5881 32.0134 12.1103 31.57 12.1412ZM28.4281 18.009C27.9916 18.04 27.94 18.5487 27.9916 19.1228C28.0431 19.6969 28.2769 20.0681 28.5416 20.0337C28.8578 19.9959 29.1672 19.7037 29.1363 18.9097C29.1156 18.3494 28.8131 17.9781 28.4281 18.009ZM23.1688 17.624C22.8594 17.9919 22.9247 18.1981 23.5709 18.8444C24.2172 19.4906 24.6538 19.6625 25.0766 19.2362C25.4994 18.8134 24.97 18.3356 24.5266 17.9747C24.0797 17.6137 23.4953 17.2322 23.1688 17.624ZM26.5822 18.0812C26.3209 18.1431 25.8706 18.59 25.9256 19.1537C25.9772 19.7175 26.4997 20.7659 26.8366 20.68C27.1769 20.594 27.3763 20.3603 27.2181 19.2259C27.1081 18.4353 26.9019 18.009 26.5822 18.0812Z" fill="#D28333"/>
<path d="M15.2453 29.4938C15.2556 29.8788 16.0119 30.1881 17.2735 29.9647C19.1675 29.6278 20.7247 28.5003 20.5872 27.9366C20.4531 27.39 18.81 28.1291 17.8166 28.4041C16.8231 28.6791 15.2316 28.8991 15.2453 29.4938ZM16.4072 31.5253C16.2835 31.7934 16.1872 32.2713 16.476 32.4088C16.7647 32.5463 17.9128 32.5738 18.7413 32.5463C19.5697 32.5188 20.0406 32.45 20.6319 32.3263C21.2231 32.2025 23.5881 31.1816 23.6156 30.9169C23.6431 30.6556 23.3956 30.0334 22.8697 29.9647C22.6497 29.9372 21.8006 30.5147 19.831 30.8894C17.8716 31.2606 16.5722 31.1644 16.4072 31.5253ZM17.9816 34.8838C17.9094 35.2688 18.1328 35.6297 18.8788 35.6984C19.6247 35.7672 21.3916 35.9184 22.9935 35.7947C24.53 35.6744 25.905 34.9938 26.2247 34.705C26.541 34.4163 26.5685 34.0141 26.1285 33.8353C25.685 33.6566 24.5059 34.0863 22.4366 34.2925C21.3331 34.4025 20.3156 34.4713 18.9475 34.5125C18.6038 34.5228 18.0778 34.375 17.9816 34.8838ZM25.7125 28.8028C25.9188 29.2153 27.2285 28.6791 28.0569 29.1913C28.7925 29.645 30.3772 30.6316 31.1953 31.8553C31.46 32.2541 32.0238 32.4088 32.3125 32.1578C32.67 31.8519 32.505 31.0681 31.9963 30.4322C31.4841 29.7963 30.3119 28.8853 29.1947 28.3353C28.0775 27.7819 27.2353 27.6306 26.8194 27.6719C26.5169 27.7028 25.9909 28.1153 25.8397 28.2528C25.685 28.3903 25.5647 28.5106 25.7125 28.8028ZM33.471 17.5106C33.0241 17.6516 33.2922 18.2841 33.361 18.6278C33.4297 18.9716 33.8181 20.2159 33.9831 21.3056C34.1481 22.3953 34.2719 24.2447 34.2031 24.7019C34.1344 25.1591 34.2169 25.4203 34.5056 25.5028C34.7944 25.5853 35.1553 25.3516 35.2653 24.8394C35.3753 24.3272 35.4578 21.8831 35.2653 20.3534C35.0763 18.8513 34.2994 17.2494 33.471 17.5106ZM21.4328 19.6659C21.3366 20.1403 21.8316 20.1644 22.33 20.6731C22.8285 21.1853 23.5297 21.6253 24.1656 22.3163C24.8016 23.0072 25.2828 23.5159 25.4375 23.6706C25.5888 23.8219 26.156 24.3203 26.156 24.3203C26.156 24.3203 26.5547 24.915 26.8606 25.41C27.1666 25.905 27.3591 26.2384 27.6616 26.1422C27.9641 26.0459 27.8816 25.245 27.7441 24.7741C27.6066 24.3031 27.0944 23.0347 25.661 21.5153C24.2275 19.9959 23.1894 19.0988 22.5672 19.1125C21.9416 19.1263 21.5153 19.2638 21.4328 19.6659ZM14.1281 16.3384C13.7431 16.2731 13.4785 16.5309 13.341 16.6684C13.2035 16.8059 12.9835 17.5106 13.0385 17.7719C13.0935 18.0331 13.6985 18.8031 14.8741 19.9959C15.8813 21.0169 16.8197 21.5291 17.1119 21.6803C17.4006 21.8316 17.9678 21.9416 18.1191 21.5291C18.2188 21.2609 17.8028 20.9894 17.6344 20.7831C17.4694 20.5769 16.7235 19.6934 16.0875 18.8238C15.455 17.9506 14.5441 16.4072 14.1281 16.3384ZM8.38408 15.2316C7.96814 15.1422 7.57283 15.7403 7.45939 16.5172C7.30814 17.5381 7.40439 19.3463 7.62439 20.9206C7.80658 22.2063 8.21908 23.4472 8.64533 24.1381C8.93064 24.5953 9.26751 24.9528 9.48751 24.8291C9.70751 24.7053 9.84501 24.4441 9.66626 23.8081C9.48751 23.1722 8.97533 21.4603 8.81033 19.7484C8.64533 18.0366 8.70033 16.8094 8.71408 16.4622C8.73126 16.115 9.03376 15.3691 8.38408 15.2316ZM6.65845 23.3234C6.4797 23.3991 5.92626 24.0281 5.99501 24.2481C6.06376 24.4681 6.6997 25.5613 7.63814 26.5959C8.57658 27.6306 9.63876 28.5828 9.9722 28.5416C10.3056 28.5003 10.6769 28.3353 10.6906 28.0431C10.7044 27.7544 10.7044 27.4484 10.5256 27.2834C10.3469 27.1184 9.17126 26.565 8.37033 25.6403C7.56939 24.7156 7.04689 23.1584 6.65845 23.3234ZM25.0491 8.81376C24.7844 8.98563 24.5094 9.4497 24.8566 9.93095C25.2003 10.4156 25.63 11.0481 26.321 12.1138C27.0119 13.1759 27.5206 14.6128 27.6478 14.8328C27.7716 15.0528 28.1188 15.2178 28.3113 14.9703C28.5038 14.7228 28.655 14.2381 28.5175 13.6022C28.4006 13.0591 27.6891 11.4606 27.3041 10.8144C26.9191 10.1681 26.0906 9.00626 25.8122 8.85501C25.5338 8.70376 25.2416 8.68657 25.0491 8.81376ZM27.9091 9.26751C27.6375 9.49095 27.8266 9.84845 28.0603 10.1784C28.2941 10.5084 28.7375 11.1306 29.04 11.9453C29.3425 12.76 29.5419 13.4991 29.5934 13.6847C29.6759 13.9872 29.8685 14.1969 30.0919 14.1419C30.3119 14.0869 30.4459 13.9906 30.4219 13.5609C30.4081 13.2859 30.2225 12.2925 29.9784 11.6016C29.6209 10.5806 28.7238 9.62845 28.5553 9.44626C28.3903 9.26751 28.1428 9.07501 27.9091 9.26751Z" fill="#768040"/>
</svg>
